# xmcd
#
# Track frame offsets:
#	150
#	14267
#	23862
#	36840
#	46642
#	57687
#	72405
#	86459
#	100656
#	111773
#	123464
#	134471
#	148640
#	158576
#	179121
#	191966
#
# Disc length: 2705 seconds
#
# Revision: 1
# Processed by: cddbd v1.5.2PL0 Copyright (c) Steve Scherf et al.
# Submitted via: audiograbber 1.83.01
#
DISCID=e30a8f10
DTITLE=Various Artist - Country Legends CD9 Kiss An Angel Good Morning
DYEAR=2005
DGENRE=Country
TTITLE0=Boxcar Willie - You Are My Sunshine
TTITLE1=Charley Pride - Kiss An Angel Good Morning
TTITLE2=Billie Jo Spears - Dallas
TTITLE3=Webb Pierce - In The Jailhouse Now
TTITLE4=Johnny Cash - I Love You Because
TTITLE5=Loretta Lynn - Coal Miner's Daughter
TTITLE6=Frankie Laine - Don't Fence Me In
TTITLE7=Jerry Lee Lewis - Cold Cold Heart
TTITLE8=Dolly Parton - It Wasn't God Who Made Honky Tonk Angels
TTITLE9=Jim Reeves - I Love You More
TTITLE10=Kenny Rogers - Ticket To Nowhere
TTITLE11=Rita Remington - Angel Of The Morning
TTITLE12=Jerry Wallace - King Of The Mountain
TTITLE13=Barbara Fairchild - Too Old For This Dress
TTITLE14=Willie Nelson - Any Old Arms Won't Do
TTITLE15=Patsy Cline - I Can't Forget
EXTD=
EXTT0=
EXTT1=
EXTT2=
EXTT3=
EXTT4=
EXTT5=
EXTT6=
EXTT7=
EXTT8=
EXTT9=
EXTT10=
EXTT11=
EXTT12=
EXTT13=
EXTT14=
EXTT15=
PLAYORDER=
